<?xml version="1.0" encoding="UTF-8" standalone="no"?>
<!-- Created with Inkscape (http://www.inkscape.org/) -->

<svg
   xmlns:dc="http://purl.org/dc/elements/1.1/"
   xmlns:cc="http://creativecommons.org/ns#"
   xmlns:rdf="http://www.w3.org/1999/02/22-rdf-syntax-ns#"
   xmlns:svg="http://www.w3.org/2000/svg"
   xmlns="http://www.w3.org/2000/svg"
   xmlns:sodipodi="http://sodipodi.sourceforge.net/DTD/sodipodi-0.dtd"
   xmlns:inkscape="http://www.inkscape.org/namespaces/inkscape"
   width="128"
   height="128"
   id="svg2"
   version="1.1"
   inkscape:version="0.48.5 r10040"
   sodipodi:docname="New document 1">
  <defs
     id="defs4" />
  <sodipodi:namedview
     id="base"
     pagecolor="#ffffff"
     bordercolor="#666666"
     borderopacity="1.0"
     inkscape:pageopacity="0.0"
     inkscape:pageshadow="2"
     inkscape:zoom="4"
     inkscape:cx="33.317293"
     inkscape:cy="100.10058"
     inkscape:document-units="px"
     inkscape:current-layer="layer1"
     showgrid="true"
     showguides="true"
     inkscape:snap-global="false"
     showborder="true"
     inkscape:showpageshadow="false"
     borderlayer="false"
     inkscape:guide-bbox="true"
     inkscape:window-width="1920"
     inkscape:window-height="1022"
     inkscape:window-x="-8"
     inkscape:window-y="-8"
     inkscape:window-maximized="1">
    <inkscape:grid
       type="xygrid"
       id="grid2985"
       empspacing="5"
       visible="true"
       enabled="true"
       snapvisiblegridlinesonly="true"
       color="#0000ff"
       opacity="0.05490196"
       empcolor="#0000ff"
       empopacity="0.07843137"
       dotted="false" />
    <sodipodi:guide
       orientation="1,0"
       position="63.993164,111.01576"
       id="guide2987" />
    <sodipodi:guide
       orientation="0,1"
       position="40.481863,63.993164"
       id="guide2989" />
    <sodipodi:guide
       orientation="0,1"
       position="48.436814,31.996582"
       id="guide2996" />
    <sodipodi:guide
       orientation="0,1"
       position="20.152543,95.989745"
       id="guide2998" />
    <sodipodi:guide
       orientation="0,1"
       position="42.24963,112.07642"
       id="guide3000" />
    <sodipodi:guide
       orientation="0,1"
       position="47.552931,16.086679"
       id="guide3002" />
    <sodipodi:guide
       orientation="1,0"
       position="31.996582,64.523494"
       id="guide3004" />
    <sodipodi:guide
       orientation="1,0"
       position="95.989745,62.04862"
       id="guide3006" />
    <sodipodi:guide
       orientation="1,0"
       position="48.083261,54.093669"
       id="guide3008" />
    <sodipodi:guide
       orientation="1,0"
       position="80.079843,50.204581"
       id="guide3010" />
    <sodipodi:guide
       orientation="1,0"
       position="71.948115,85.383144"
       id="guide3788" />
  </sodipodi:namedview>
  <metadata
     id="metadata7">
    <rdf:RDF>
      <cc:Work
         rdf:about="">
        <dc:format>image/svg+xml</dc:format>
        <dc:type
           rdf:resource="http://purl.org/dc/dcmitype/StillImage" />
        <dc:title></dc:title>
      </cc:Work>
    </rdf:RDF>
  </metadata>
  <g
     inkscape:label="Layer 1"
     inkscape:groupmode="layer"
     id="layer1"
     transform="translate(0,-924.36217)">
    <path
       style="fill:#333333;stroke:#333333;stroke-width:1.20935583px;stroke-linecap:butt;stroke-linejoin:miter;stroke-opacity:1"
       d="m 64.000781,935.86217 c -0.348889,0 -0.655332,0.19734 -0.920312,0.5 -0.176653,0.20177 -0.326808,0.45084 -0.445313,0.75 -0.0035,0.008 0.0035,0.0227 0,0.0312 -0.05494,0.14209 -0.138928,0.27882 -0.178125,0.4375 -0.0026,0.01 0.0025,0.0216 0,0.0312 -0.03821,0.15965 -0.06848,0.32705 -0.08906,0.5 -0.0013,0.0104 0.0013,0.0208 0,0.0312 -0.01953,0.17394 -0.02969,0.34727 -0.02969,0.53125 -7.3e-5,0.0108 0,0.0205 0,0.0312 l 0,45.9375 c -0.13775,0.0442 -0.278302,0.0742 -0.385937,0.1875 l -7.926563,8.34375 0,5 9.975,-10.5 10.004688,10.53125 0,-5 -7.926563,-8.34375 c -0.107632,-0.1133 -0.248187,-0.14328 -0.385937,-0.1875 l 0,-45.96875 c 0,-0.46744 -0.06075,-0.89415 -0.178125,-1.28125 -0.03282,-0.10834 -0.07809,-0.21278 -0.11875,-0.3125 -0.116139,-0.28293 -0.276231,-0.55687 -0.445313,-0.75 -0.09801,-0.11194 -0.184963,-0.20639 -0.296875,-0.28125 -0.202254,-0.14194 -0.420531,-0.21875 -0.653125,-0.21875 z m -14.398437,10.15625 c -3.496549,0.36266 -10.488369,14.09151 -24.492188,41.53125 -28.0350126,54.93313 -28.0428406,54.94373 -0.08906,52.25003 25.136743,-2.4222 27.651279,-2.8036 27.965625,-40.8125 l -7.867188,8.2812 c -0.372153,0.3917 -0.963784,0.3917 -1.335937,0 l -1.039063,-1.0937 c -0.37215,-0.3917 -0.37215,-1.0145 0,-1.4063 l 7.035938,-7.37498 -3.91875,-4.125 -10.004688,10.53128 c -0.04159,0.044 -0.101317,0.06 -0.148437,0.094 l -1.514063,1.5938 10.80625,11.375 c 0.372153,0.3918 0.372153,1.0458 0,1.4375 l -1.009375,1.0622 c -0.372153,0.3918 -0.993472,0.3918 -1.365625,0 l -1.929687,-2.0313 -10.360938,10.9063 c -0.37215,0.3918 -0.993474,0.3918 -1.365625,0 l -1.009375,-1.0625 c -0.37215,-0.3917 -0.37215,-1.0457 0,-1.4375 l 10.360938,-10.9063 -6.501563,-6.8437 -4.215625,4.4375 c -0.37215,0.3918 -0.993472,0.3918 -1.365625,0 l -1.009375,-1.0625 c -0.372153,-0.3917 -0.372153,-1.0457 0,-1.4375 l 10.984375,-11.56253 c 0.04159,-0.0437 0.101802,-0.0598 0.148438,-0.0937 l 7.125,-7.5 -3.859375,-4.0625 -0.504688,0.53125 c -0.37215,0.39174 -0.993474,0.39174 -1.365625,0 l -1.009375,-1.0625 c -0.37215,-0.39174 -0.37215,-1.04576 0,-1.4375 l 10.984375,-11.5625 c 0.372153,-0.39174 0.993472,-0.39174 1.365625,0 l 1.009375,1.0625 c 0.372153,0.39174 0.372153,1.04576 0,1.4375 l -8.104687,8.53125 10.153125,10.6875 0.860937,-0.9375 c 0.01102,-2.84482 0.02494,-5.8621 0.02969,-9.09375 0.03935,-25.30348 0.05835,-38.35914 -3.117188,-38.84375 -0.105638,-0.0161 -0.21377,-0.0117 -0.326562,0 z m 28.5,0.0312 c -3.17554,0.48461 -3.156536,13.54027 -3.117188,38.84375 0.005,3.23165 0.01865,6.24893 0.02969,9.09375 l 0.860937,0.9375 10.153125,-10.6875 -8.104687,-8.53125 c -0.37215,-0.39174 -0.37215,-1.04576 0,-1.4375 l 1.009375,-1.0625 c 0.37215,-0.39174 0.993475,-0.39174 1.365625,0 l 10.984375,11.5625 c 0.37215,0.39174 0.37215,1.04576 0,1.4375 l -1.009375,1.0625 c -0.37215,0.39174 -0.993475,0.39174 -1.365625,0 l -0.504688,-0.53125 -3.859375,4.0625 7.125,7.5 c 0.04664,0.034 0.106845,0.05 0.148438,0.0937 l 10.984369,11.56248 c 0.37216,0.3918 0.37216,1.0458 0,1.4375 l -1.00937,1.0625 c -0.37215,0.3918 -0.99347,0.3918 -1.36563,0 l -4.215619,-4.4375 -6.501563,6.8438 10.360932,10.9062 c 0.37216,0.3918 0.37216,1.0458 0,1.4375 l -1.009369,1.0625 c -0.372153,0.3918 -0.993472,0.3918 -1.365625,0 l -10.360938,-10.9062 -1.929687,2.0312 c -0.37215,0.3918 -0.993475,0.3918 -1.365625,0 l -1.009375,-1.0625 c -0.37215,-0.3917 -0.37215,-1.0457 0,-1.4375 l 10.80625,-11.375 -1.514063,-1.5937 c -0.04712,-0.034 -0.106844,-0.05 -0.148437,-0.094 l -10.004688,-10.53121 -3.91875,4.125 7.035938,7.37501 c 0.37215,0.3917 0.37215,1.0145 0,1.4062 l -1.039063,1.0938 c -0.37215,0.3917 -0.963787,0.3917 -1.335937,0 l -7.867188,-8.28128 c 0.314345,38.00888 2.82888,38.39028 27.965627,40.81248 27.95377,2.6937 27.94595,2.6831 -0.089,-52.24996 C 88.465586,959.25573 81.482805,945.53349 78.102391,946.04937 z"
       id="path3018"
       inkscape:connector-curvature="0" />
  </g>
</svg>
