<?xml version="1.0" standalone="no"?>
<!DOCTYPE svg PUBLIC "-//W3C//DTD SVG 1.1//EN"
  "http://www.w3.org/Graphics/SVG/1.1/DTD/svg11.dtd">
<!-- Created with matplotlib (http://matplotlib.sourceforge.net/) -->
<svg width="720" height="144" viewBox="0 0 720 144"
   xmlns="http://www.w3.org/2000/svg"
   xmlns:xlink="http://www.w3.org/1999/xlink"
   version="1.1"
   id="svg1">
<g id="figure1">
<polygon style="fill: #ffffff; stroke: #ffffff; stroke-width: 1.000000; stroke-linejoin: miter; stroke-linecap: square;  opacity: 1.000000; " points = "0.000000,144.000000 0.000000,0.000000 720.000000,0.000000 720.000000,144.000000"/>
<g id="axes1">
<polygon style="fill: #ffffff; stroke: #000000; stroke-width: 1.000000; stroke-linejoin: miter; stroke-linecap: square;  opacity: 1.000000; " points = "90.000000,129.600000 90.000000,14.400000 648.000000,14.400000 648.000000,129.600000"/>
<defs>
    <clipPath id="667498303">
    <rect x="90.000000" y="14.400000" width="558.000000" height="115.200000"
    style="stroke: gray; fill: none;"/>
    </clipPath>
</defs>
<path style="fill: none; stroke: #0000ff; stroke-width: 1.000000; stroke-linejoin: miter; stroke-linecap: square;  opacity: 1.000000; clip-path:url(#667498303);" d="M 90.000000,69.287278 L 92.179688,68.626463 L 94.359375,68.029974 L 96.539062,67.497437 L 98.718750,67.026442 L 100.898438,66.612978 L 103.078125,66.252514 L 105.257812,65.941435 L 107.437500,65.678435 L 109.617188,65.465036 L 111.796875,65.305025 L 113.976562,65.203614 L 116.156250,65.166962 L 118.335938,65.202027 L 120.515625,65.316662 L 122.695312,65.519870 L 124.875000,65.821839 L 127.054688,66.233596 L 129.234375,66.766406 L 131.414062,67.430865 L 133.593750,68.235502 L 135.773438,69.185167 L 137.953125,70.280122 L 140.132812,71.516157 L 142.312500,72.884807 L 144.492188,74.372971 L 146.671875,75.962838 L 148.851562,77.633136 L 151.031250,79.361184 L 153.210938,81.124295 L 155.390625,82.900099 L 157.570312,84.666597 L 159.750000,86.402708 L 161.929688,88.089300 L 164.109375,89.710342 L 166.289062,91.253640 L 168.468750,92.710495 L 170.648438,94.074304 L 172.828125,95.339381 L 175.007812,96.501478 L 177.187500,97.559806 L 179.367188,98.518492 L 181.546875,99.385864 L 183.726562,100.172234 L 185.906250,100.888034 L 188.085938,101.543341 L 190.265625,102.148868 L 192.445312,102.717647 L 194.625000,103.265850 L 196.804688,103.811747 L 198.984375,104.372999 L 201.164062,104.963340 L 203.343750,105.590126 L 205.523438,106.253811 L 207.703125,106.949005 L 209.882812,107.666210 L 212.062500,108.393763 L 214.242188,109.119528 L 216.421875,109.831692 L 218.601562,110.518899 L 220.781250,111.170820 L 222.960938,111.779458 L 225.140625,112.340013 L 227.320312,112.850189 L 229.500000,113.308610 L 231.679688,113.713873 L 233.859375,114.064774 L 236.039062,114.361058 L 238.218750,114.604069 L 240.398438,114.797213 L 242.578125,114.946522 L 244.757812,115.061193 L 246.937500,115.153350 L 249.117188,115.236710 L 251.296875,115.324992 L 253.476562,115.430780 L 255.656250,115.564574 L 257.835938,115.734081 L 260.015625,115.944214 L 262.195312,116.197532 L 264.375000,116.494307 L 266.554688,116.832178 L 268.734375,117.206356 L 270.914062,117.611056 L 273.093750,118.041351 L 275.273438,118.493954 L 277.453125,118.966711 L 279.632812,119.457895 L 281.812500,119.966019 L 283.992188,120.489782 L 286.171875,121.027547 L 288.351562,121.576388 L 290.531250,122.131135 L 292.710938,122.683942 L 294.890625,123.225148 L 297.070312,123.745295 L 299.250000,124.236686 L 301.429688,124.693251 L 303.609375,125.109351 L 305.789062,125.478655 L 307.968750,125.793784 L 310.148438,126.046770 L 312.328125,126.229409 L 314.507812,126.333055 L 316.687500,126.348776 L 318.867188,126.268371 L 321.046875,126.085455 L 323.226562,125.795923 L 325.406250,125.397784 L 327.585938,124.890631 L 329.765625,124.275264 L 331.945312,123.553938 L 334.125000,122.731074 L 336.304688,121.813659 L 338.484375,120.810473 L 340.664062,119.730144 L 342.843750,118.579208 L 345.023438,117.361649 L 347.203125,116.080456 L 349.382812,114.740092 L 351.562500,113.347607 L 353.742188,111.911321 L 355.921875,110.438842 L 358.101562,108.936728 L 360.281250,107.411724 L 362.460938,105.871918 L 364.640625,104.327302 L 366.820312,102.790628 L 369.000000,101.278520 L 371.179688,99.811644 L 373.359375,98.413456 L 375.539062,97.108140 L 377.718750,95.918464 L 379.898438,94.864142 L 382.078125,93.961095 L 384.257812,93.221611 L 386.437500,92.655073 L 388.617188,92.268575 L 390.796875,92.066829 L 392.976562,92.051566 L 395.156250,92.221040 L 397.335938,92.570024 L 399.515625,93.090249 L 401.695312,93.770321 L 403.875000,94.594376 L 406.054688,95.540726 L 408.234375,96.582470 L 410.414062,97.689800 L 412.593750,98.831660 L 414.773438,99.975388 L 416.953125,101.085546 L 419.132812,102.123934 L 421.312500,103.051250 L 423.492188,103.829249 L 425.671875,104.422535 L 427.851562,104.800017 L 430.031250,104.935791 L 432.210938,104.808437 L 434.390625,104.399004 L 436.570312,103.689883 L 438.750000,102.665781 L 440.929688,101.315642 L 443.109375,99.634469 L 445.289062,97.624978 L 447.468750,95.298433 L 449.648438,92.673919 L 451.828125,89.776496 L 454.007812,86.635201 L 456.187500,83.281260 L 458.367188,79.746901 L 460.546875,76.065516 L 462.726562,72.272904 L 464.906250,68.408143 L 467.085938,64.513400 L 469.265625,60.633176 L 471.445312,56.813053 L 473.625000,53.097737 L 475.804688,49.529029 L 477.984375,46.144686 L 480.164062,42.978657 L 482.343750,40.062475 L 484.523438,37.426352 L 486.703125,35.098326 L 488.882812,33.102357 L 491.062500,31.457802 L 493.242188,30.180294 L 495.421875,29.282005 L 497.601562,28.771072 L 499.781250,28.651146 L 501.960938,28.920684 L 504.140625,29.571417 L 506.320312,30.587470 L 508.500000,31.946837 L 510.679688,33.624439 L 512.859375,35.594435 L 515.039062,37.830926 L 517.218750,40.307708 L 519.398438,42.997684 L 521.578125,45.872331 L 523.757812,48.901914 L 525.937500,52.056846 L 528.117188,55.309369 L 530.296875,58.634252 L 532.476562,62.008405 L 534.656250,65.410453 L 536.835938,68.820946 L 539.015625,72.223220 L 541.195312,75.604333 L 543.375000,78.954822 L 545.554688,82.266396 L 547.734375,85.528905 L 549.914062,88.728938 L 552.093750,91.850812 L 554.273438,94.878961 L 556.453125,97.799954 L 558.632812,100.602604 L 560.812500,103.276639 L 562.992188,105.811861 L 565.171875,108.198560 L 567.351562,110.428375 L 569.531250,112.495029 L 571.710938,114.394831 L 573.890625,116.126578 L 576.070312,117.690699 L 578.250000,119.088755 L 580.429688,120.324400 L 582.609375,121.404247 L 584.789062,122.336645 L 586.968750,123.129654 L 589.148438,123.790261 L 591.328125,124.324401 L 593.507812,124.737269 L 595.687500,125.034392 L 597.867188,125.222957 L 600.046875,125.312449 L 602.226562,125.314528 L 604.406250,125.242135 L 606.585938,125.107477 L 608.765625,124.919737 L 610.945312,124.684011 L 613.125000,124.401554 L 615.304688,124.070370 L 617.484375,123.686111 L 619.664062,123.243649 L 621.843750,122.738731 L 624.023438,122.168890 L 626.203125,121.533259 L 628.382812,120.831388 L 630.562500,120.062037 L 632.742188,119.223386 L 634.921875,118.314932 L 637.101562,117.339774 L 639.281250,116.305763 L 641.460938,115.224877 L 643.640625,114.111466 L 645.820312,112.981057 "/>
<g id="matplotlib.axis1">
<g id="xtick1">
<text style="font-size: 12.000000; font-family: Verdana; font-style: Regular; fill: #000000;" x="81.000000" y="142.600000" >0.0</text>
</g>
<g id="xtick2">
<path style="fill: none; stroke: #000000; stroke-width: 0.500000; stroke-linejoin: miter; stroke-linecap: butt;  opacity: 1.000000; " d="M 201.600000,129.600000 L 201.600000,125.600000"/>
<path style="fill: none; stroke: #000000; stroke-width: 0.500000; stroke-linejoin: miter; stroke-linecap: butt;  opacity: 1.000000; " d="M 201.600000,18.400000 L 201.600000,14.400000"/>
<text style="font-size: 12.000000; font-family: Verdana; font-style: Regular; fill: #000000;" x="192.600000" y="142.600000" >0.2</text>
</g>
<g id="xtick3">
<path style="fill: none; stroke: #000000; stroke-width: 0.500000; stroke-linejoin: miter; stroke-linecap: butt;  opacity: 1.000000; " d="M 313.200000,129.600000 L 313.200000,125.600000"/>
<path style="fill: none; stroke: #000000; stroke-width: 0.500000; stroke-linejoin: miter; stroke-linecap: butt;  opacity: 1.000000; " d="M 313.200000,18.400000 L 313.200000,14.400000"/>
<text style="font-size: 12.000000; font-family: Verdana; font-style: Regular; fill: #000000;" x="303.700000" y="142.600000" >0.4</text>
</g>
<g id="xtick4">
<path style="fill: none; stroke: #000000; stroke-width: 0.500000; stroke-linejoin: miter; stroke-linecap: butt;  opacity: 1.000000; " d="M 424.800000,129.600000 L 424.800000,125.600000"/>
<path style="fill: none; stroke: #000000; stroke-width: 0.500000; stroke-linejoin: miter; stroke-linecap: butt;  opacity: 1.000000; " d="M 424.800000,18.400000 L 424.800000,14.400000"/>
<text style="font-size: 12.000000; font-family: Verdana; font-style: Regular; fill: #000000;" x="415.800000" y="142.600000" >0.6</text>
</g>
<g id="xtick5">
<path style="fill: none; stroke: #000000; stroke-width: 0.500000; stroke-linejoin: miter; stroke-linecap: butt;  opacity: 1.000000; " d="M 536.400000,129.600000 L 536.400000,125.600000"/>
<path style="fill: none; stroke: #000000; stroke-width: 0.500000; stroke-linejoin: miter; stroke-linecap: butt;  opacity: 1.000000; " d="M 536.400000,18.400000 L 536.400000,14.400000"/>
<text style="font-size: 12.000000; font-family: Verdana; font-style: Regular; fill: #000000;" x="527.400000" y="142.600000" >0.8</text>
</g>
<g id="xtick6">
<text style="font-size: 12.000000; font-family: Verdana; font-style: Regular; fill: #000000;" x="639.500000" y="142.600000" >1.0</text>
</g>
</g>
<g id="matplotlib.axis2">
</g>
</g>
</g>
</svg>
